<svg width="90" height="27" viewBox="0 0 63 20" fill="none" xmlns="http://www.w3.org/2000/svg">
<rect y="7.26375" width="18" height="12" fill="#06B8DD"/>
<rect y="4.82866" width="17.0831" height="3.70084" transform="rotate(-16.4189 0 4.82866)" fill="#06B8DD"/>
<path d="M21.6165 11.1728H22.3523L24.0824 15.3987H24.142L25.8722 11.1728H26.608V16.2637H26.0312V12.3959H25.9815L24.3906 16.2637H23.8338L22.2429 12.3959H22.1932V16.2637H21.6165V11.1728ZM29.3156 16.3433C28.9709 16.3433 28.6685 16.2613 28.4083 16.0972C28.1498 15.9331 27.9476 15.7036 27.8018 15.4086C27.6576 15.1137 27.5855 14.769 27.5855 14.3745C27.5855 13.9768 27.6576 13.6296 27.8018 13.333C27.9476 13.0364 28.1498 12.806 28.4083 12.6419C28.6685 12.4779 28.9709 12.3959 29.3156 12.3959C29.6603 12.3959 29.9619 12.4779 30.2204 12.6419C30.4806 12.806 30.6828 13.0364 30.827 13.333C30.9728 13.6296 31.0457 13.9768 31.0457 14.3745C31.0457 14.769 30.9728 15.1137 30.827 15.4086C30.6828 15.7036 30.4806 15.9331 30.2204 16.0972C29.9619 16.2613 29.6603 16.3433 29.3156 16.3433ZM29.3156 15.8163C29.5774 15.8163 29.7929 15.7492 29.9619 15.615C30.1309 15.4807 30.2561 15.3042 30.3373 15.0855C30.4185 14.8667 30.4591 14.6298 30.4591 14.3745C30.4591 14.1193 30.4185 13.8815 30.3373 13.6611C30.2561 13.4407 30.1309 13.2626 29.9619 13.1267C29.7929 12.9908 29.5774 12.9228 29.3156 12.9228C29.0538 12.9228 28.8383 12.9908 28.6693 13.1267C28.5003 13.2626 28.3751 13.4407 28.2939 13.6611C28.2127 13.8815 28.1721 14.1193 28.1721 14.3745C28.1721 14.6298 28.2127 14.8667 28.2939 15.0855C28.3751 15.3042 28.5003 15.4807 28.6693 15.615C28.8383 15.7492 29.0538 15.8163 29.3156 15.8163ZM34.9267 12.4456L33.5147 16.2637H32.9181L31.5062 12.4456H32.1426L33.1966 15.4882H33.2363L34.2903 12.4456H34.9267ZM35.701 16.2637V12.4456H36.2876V16.2637H35.701ZM35.9993 11.8092C35.8849 11.8092 35.7863 11.7703 35.7035 11.6924C35.6223 11.6145 35.5817 11.5209 35.5817 11.4115C35.5817 11.3021 35.6223 11.2085 35.7035 11.1306C35.7863 11.0527 35.8849 11.0137 35.9993 11.0137C36.1136 11.0137 36.2114 11.0527 36.2926 11.1306C36.3755 11.2085 36.4169 11.3021 36.4169 11.4115C36.4169 11.5209 36.3755 11.6145 36.2926 11.6924C36.2114 11.7703 36.1136 11.8092 35.9993 11.8092ZM38.963 16.3433C38.5951 16.3433 38.2777 16.2621 38.0109 16.0997C37.7458 15.9356 37.5411 15.7069 37.3969 15.4136C37.2544 15.1186 37.1831 14.7756 37.1831 14.3845C37.1831 13.9934 37.2544 13.6487 37.3969 13.3504C37.5411 13.0504 37.7416 12.8168 37.9985 12.6494C38.257 12.4804 38.5586 12.3959 38.9033 12.3959C39.1022 12.3959 39.2986 12.429 39.4925 12.4953C39.6863 12.5616 39.8628 12.6693 40.0219 12.8184C40.181 12.9659 40.3078 13.1615 40.4023 13.4051C40.4967 13.6487 40.5439 13.9486 40.5439 14.3049V14.5535H37.6008V14.0464H39.9474C39.9474 13.831 39.9043 13.6387 39.8181 13.4697C39.7336 13.3007 39.6126 13.1673 39.4552 13.0695C39.2994 12.9717 39.1154 12.9228 38.9033 12.9228C38.6697 12.9228 38.4675 12.9808 38.2968 13.0968C38.1278 13.2112 37.9977 13.3603 37.9065 13.5443C37.8154 13.7282 37.7698 13.9254 37.7698 14.1359V14.474C37.7698 14.7623 37.8195 15.0068 37.9189 15.2073C38.02 15.4061 38.1601 15.5578 38.339 15.6622C38.518 15.7649 38.726 15.8163 38.963 15.8163C39.1171 15.8163 39.2563 15.7948 39.3806 15.7517C39.5065 15.7069 39.6151 15.6406 39.7062 15.5528C39.7974 15.4633 39.8678 15.3523 39.9175 15.2197L40.4843 15.3788C40.4246 15.571 40.3244 15.7401 40.1835 15.8859C40.0426 16.0301 39.8686 16.1428 39.6615 16.224C39.4543 16.3035 39.2215 16.3433 38.963 16.3433ZM41.5159 11.1728H42.2517L43.9818 15.3987H44.0415L45.7716 11.1728H46.5074V16.2637H45.9307V12.3959H45.8809L44.29 16.2637H43.7332L42.1423 12.3959H42.0926V16.2637H41.5159V11.1728ZM48.7875 16.3532C48.5455 16.3532 48.3259 16.3077 48.1287 16.2165C47.9315 16.1237 47.7749 15.9903 47.6589 15.8163C47.5429 15.6406 47.4849 15.4285 47.4849 15.1799C47.4849 14.9612 47.528 14.7839 47.6142 14.648C47.7003 14.5104 47.8155 14.4027 47.9597 14.3248C48.1039 14.2469 48.263 14.1889 48.437 14.1508C48.6126 14.111 48.7891 14.0796 48.9664 14.0564C49.1984 14.0265 49.3865 14.0042 49.5307 13.9892C49.6766 13.9727 49.7826 13.9453 49.8489 13.9072C49.9168 13.8691 49.9508 13.8028 49.9508 13.7084V13.6885C49.9508 13.4432 49.8837 13.2526 49.7495 13.1167C49.6169 12.9808 49.4155 12.9129 49.1454 12.9129C48.8654 12.9129 48.6458 12.9742 48.4867 13.0968C48.3276 13.2195 48.2157 13.3504 48.1511 13.4896L47.5943 13.2907C47.6937 13.0587 47.8263 12.8781 47.992 12.7488C48.1594 12.6179 48.3417 12.5268 48.5389 12.4754C48.7377 12.4224 48.9333 12.3959 49.1255 12.3959C49.2482 12.3959 49.389 12.4108 49.5481 12.4406C49.7089 12.4688 49.8638 12.5276 50.013 12.6171C50.1638 12.7066 50.2889 12.8416 50.3883 13.0223C50.4877 13.2029 50.5375 13.4449 50.5375 13.7481V16.2637H49.9508V15.7467H49.921C49.8812 15.8296 49.8149 15.9182 49.7221 16.0127C49.6293 16.1071 49.5059 16.1875 49.3517 16.2538C49.1976 16.3201 49.0095 16.3532 48.7875 16.3532ZM48.877 15.8262C49.109 15.8262 49.3045 15.7807 49.4636 15.6895C49.6243 15.5984 49.7453 15.4807 49.8265 15.3365C49.9094 15.1924 49.9508 15.0407 49.9508 14.8816V14.3447C49.926 14.3745 49.8713 14.4019 49.7868 14.4267C49.7039 14.4499 49.6078 14.4707 49.4984 14.4889C49.3907 14.5055 49.2855 14.5204 49.1827 14.5336C49.0816 14.5452 48.9996 14.5552 48.9366 14.5635C48.7842 14.5834 48.6416 14.6157 48.5091 14.6604C48.3781 14.7035 48.2721 14.769 48.1909 14.8568C48.1113 14.943 48.0716 15.0606 48.0716 15.2098C48.0716 15.4136 48.147 15.5677 48.2978 15.6721C48.4502 15.7749 48.6433 15.8262 48.877 15.8262ZM51.6082 16.2637V12.4456H52.175V13.0223H52.2148C52.2844 12.8334 52.4103 12.6801 52.5926 12.5624C52.7749 12.4447 52.9804 12.3859 53.2091 12.3859C53.2522 12.3859 53.306 12.3867 53.3706 12.3884C53.4353 12.3901 53.4842 12.3925 53.5173 12.3959V12.9924C53.4974 12.9875 53.4519 12.98 53.3806 12.9701C53.311 12.9585 53.2372 12.9527 53.1594 12.9527C52.9738 12.9527 52.808 12.9916 52.6622 13.0695C52.518 13.1457 52.4037 13.2518 52.3192 13.3877C52.2363 13.5219 52.1949 13.6752 52.1949 13.8476V16.2637H51.6082ZM57.4511 12.4456L56.0392 16.2637H55.4426L54.0306 12.4456H54.667L55.721 15.4882H55.7607L56.8147 12.4456H57.4511ZM59.6895 16.3433C59.3216 16.3433 59.0043 16.2621 58.7375 16.0997C58.4723 15.9356 58.2677 15.7069 58.1235 15.4136C57.981 15.1186 57.9097 14.7756 57.9097 14.3845C57.9097 13.9934 57.981 13.6487 58.1235 13.3504C58.2677 13.0504 58.4682 12.8168 58.7251 12.6494C58.9836 12.4804 59.2852 12.3959 59.6299 12.3959C59.8287 12.3959 60.0251 12.429 60.219 12.4953C60.4129 12.5616 60.5894 12.6693 60.7485 12.8184C60.9076 12.9659 61.0344 13.1615 61.1288 13.4051C61.2233 13.6487 61.2705 13.9486 61.2705 14.3049V14.5535H58.3273V14.0464H60.6739C60.6739 13.831 60.6308 13.6387 60.5447 13.4697C60.4601 13.3007 60.3392 13.1673 60.1817 13.0695C60.026 12.9717 59.842 12.9228 59.6299 12.9228C59.3962 12.9228 59.194 12.9808 59.0233 13.0968C58.8543 13.2112 58.7242 13.3603 58.6331 13.5443C58.5419 13.7282 58.4964 13.9254 58.4964 14.1359V14.474C58.4964 14.7623 58.5461 15.0068 58.6455 15.2073C58.7466 15.4061 58.8866 15.5578 59.0656 15.6622C59.2446 15.7649 59.4526 15.8163 59.6895 15.8163C59.8437 15.8163 59.9829 15.7948 60.1072 15.7517C60.2331 15.7069 60.3416 15.6406 60.4328 15.5528C60.5239 15.4633 60.5944 15.3523 60.6441 15.2197L61.2108 15.3788C61.1512 15.571 61.0509 15.7401 60.9101 15.8859C60.7692 16.0301 60.5952 16.1428 60.3881 16.224C60.1809 16.3035 59.9481 16.3433 59.6895 16.3433ZM62.7496 11.1728V16.2637H62.1629V11.1728H62.7496Z" fill="#06B8DD"/>
</svg>
